<svg width="700" height="700" viewBox="0 0 700 700" fill="none" xmlns="http://www.w3.org/2000/svg">
<path d="M245.233 109.593C249.45 97.5369 263.793 92.7002 273.982 99.8987L384.171 177.744C387.08 179.799 390.522 180.961 394.095 181.093L528.074 186.058C540.127 186.505 548.449 198.173 545.165 210.021L507.731 345.063C506.792 348.451 506.782 352.016 507.703 355.372L544.621 489.926C547.918 501.94 539.061 514.096 526.704 514.519L393.794 519.067C390.133 519.192 386.566 520.395 383.528 522.529L273.236 599.991C262.982 607.194 248.975 602.747 244.9 590.996L199.257 459.383C198.119 456.101 196.108 453.217 193.444 451.044L87.2568 364.433C77.9403 356.834 78.1328 342.295 87.6523 334.574L193.469 248.747C196.291 246.458 198.429 243.415 199.632 239.973L245.233 109.593Z" fill="#F7CAC9"/>
<path d="M273.869 109.593C278.085 97.5369 292.428 92.7002 302.618 99.8987L412.807 177.744C415.716 179.799 419.158 180.961 422.731 181.093L556.71 186.058C568.763 186.505 577.085 198.173 573.8 210.021L536.367 345.063C535.428 348.451 535.418 352.016 536.339 355.372L573.257 489.926C576.553 501.94 567.697 514.096 555.339 514.519L422.43 519.067C418.769 519.192 415.202 520.395 412.164 522.529L301.872 599.991C291.618 607.194 277.611 602.747 273.535 590.996L227.892 459.383C226.754 456.101 224.744 453.217 222.08 451.044L115.892 364.433C106.576 356.834 106.768 342.295 116.288 334.574L222.105 248.747C224.927 246.458 227.064 243.415 228.268 239.973L273.869 109.593Z" fill="#519ABA"/>
<path d="M364.935 419.826C364.24 422.183 363.892 424.539 363.892 426.896C363.892 428.89 364.153 430.612 364.674 432.062C365.196 433.331 365.717 434.418 366.238 435.325C366.933 436.05 367.368 436.594 367.541 436.956C369.279 438.769 370.148 440.581 370.148 442.394C370.148 442.757 369.974 443.663 369.627 445.113C368.932 447.651 367.368 449.463 364.935 450.551C362.676 451.457 359.114 451.911 354.249 451.911H292.476C288.827 451.911 285.96 451.276 283.875 450.007C281.963 448.738 281.007 447.016 281.007 444.841C281.007 443.754 281.268 442.575 281.789 441.306C282.311 439.856 283.006 438.769 283.875 438.044C284.917 437.137 286.307 436.14 288.045 435.053C290.825 433.421 293.084 431.609 294.822 429.615C296.559 427.621 298.036 424.358 299.253 419.826L306.029 396.443H265.369L258.331 411.941C255.377 418.648 253.9 423.905 253.9 427.712C253.9 429.887 254.248 431.699 254.943 433.15C255.638 434.418 256.681 435.778 258.071 437.228C259.287 438.678 260.069 439.947 260.417 441.035C260.938 441.941 261.025 443.21 260.677 444.841C259.982 447.56 258.505 449.463 256.246 450.551C254.161 451.457 250.773 451.911 246.081 451.911H207.245C203.249 451.911 200.208 451.185 198.123 449.735C196.037 448.104 194.995 446.019 194.995 443.482C194.995 440.581 196.037 438.316 198.123 436.684C200.034 434.872 202.988 432.968 206.984 430.974C212.197 428.255 216.368 425.627 219.495 423.089C222.623 420.37 225.316 416.654 227.575 411.941L273.97 311.611C281.094 296.022 289.435 284.783 298.992 277.895C308.723 270.826 321.494 267.291 337.307 267.291C355.031 267.291 368.758 271.098 378.489 278.711C388.219 286.143 393.085 296.566 393.085 309.979C393.085 315.599 392.216 321.399 390.478 327.381L364.935 419.826ZM313.849 369.253L327.663 321.399C328.358 319.224 328.705 316.958 328.705 314.602C328.705 311.158 327.75 308.62 325.838 306.988C324.101 305.176 321.581 304.269 318.28 304.269C314.109 304.269 310.547 305.538 307.593 308.076C304.639 310.614 301.685 315.145 298.731 321.671L277.358 369.253H313.849Z" fill="#F7CAC9"/>
<path d="M481.706 305.085C482.053 303.998 482.227 302.547 482.227 300.735C482.227 297.834 481.445 295.478 479.881 293.665C478.491 291.853 476.232 289.859 473.105 287.684C470.498 285.69 468.587 283.968 467.37 282.518C466.328 281.067 466.067 279.345 466.588 277.351C467.11 274.814 468.413 273.092 470.498 272.185C472.583 271.279 475.885 270.826 480.403 270.826H554.426C558.075 270.826 560.855 271.46 562.766 272.729C564.851 273.998 565.894 275.629 565.894 277.623C565.894 278.53 565.633 279.708 565.112 281.158C564.591 282.427 563.809 283.605 562.766 284.693C561.897 285.599 561.029 286.324 560.16 286.868C559.465 287.23 558.943 287.593 558.596 287.955C555.816 289.587 553.557 291.4 551.819 293.393C550.082 295.387 548.605 298.469 547.388 302.638L521.845 396.715C516.632 415.929 507.77 430.249 495.259 439.675C482.748 448.92 466.502 453.542 446.519 453.542C433.139 453.542 421.758 451.548 412.374 447.56C403.165 443.391 396.214 437.862 391.523 430.974C386.831 424.086 384.485 416.564 384.485 408.407C384.485 404.419 385.007 400.522 386.049 396.715C388.308 388.558 392.131 382.395 397.518 378.226C403.078 374.057 409.247 371.972 416.023 371.972C423.843 371.972 429.838 374.419 434.008 379.314C438.178 384.208 440.263 390.461 440.263 398.075C440.263 401.881 439.742 405.688 438.699 409.494C436.614 417.107 432.705 422.727 426.97 426.352C429.751 428.165 432.965 429.071 436.614 429.071C440.263 429.071 443.478 427.168 446.258 423.361C449.038 419.555 451.384 414.207 453.296 407.319L481.706 305.085Z" fill="#F7CAC9"/>
<ellipse cx="606.802" cy="349.753" rx="43.6352" ry="45.4964" fill="#F7CAC9"/>
<ellipse cx="621.802" cy="349.753" rx="43.6352" ry="45.4964" fill="#519ABA"/>
</svg>
